<svg width="31" height="29" viewBox="0 0 31 29" fill="none" xmlns="http://www.w3.org/2000/svg">
<g clip-path="url(#clip0_220_43)">
<path fill-rule="evenodd" clip-rule="evenodd" d="M26.6691 0C28.7178 0 30.381 1.58764 30.381 3.5431V25.4569C30.381 27.4124 28.7177 29 26.6691 29H3.71182C1.66324 29 0 27.4124 0 25.4569V3.5431C0 1.58764 1.66318 0 3.71182 0H26.6691ZM15.1905 4.58789C12.3703 4.58789 12.0167 4.59928 10.9091 4.64753C9.80385 4.69568 9.04901 4.86322 8.38847 5.1083C7.70561 5.3616 7.12653 5.70054 6.54923 6.25154C5.97193 6.8026 5.61686 7.35541 5.3515 8.00717C5.0948 8.6377 4.91928 9.35822 4.86879 10.4133C4.81829 11.4705 4.80636 11.808 4.80636 14.5C4.80636 17.192 4.81829 17.5295 4.86879 18.5867C4.91928 19.6418 5.0948 20.3623 5.3515 20.9928C5.61686 21.6446 5.97193 22.1974 6.54923 22.7485C7.12653 23.2995 7.70561 23.6385 8.38847 23.8918C9.04901 24.1368 9.80385 24.3043 10.9091 24.3525C12.0167 24.4007 12.3703 24.4121 15.1905 24.4121C18.0106 24.4121 18.3643 24.4007 19.4718 24.3525C20.5771 24.3043 21.3319 24.1368 21.9925 23.8918C22.6753 23.6385 23.2544 23.2995 23.8317 22.7485C24.409 22.1974 24.7641 21.6446 25.0295 20.9928C25.2861 20.3623 25.4617 19.6418 25.5121 18.5867C25.5627 17.5295 25.5746 17.192 25.5746 14.5C25.5746 11.808 25.5627 11.4705 25.5121 10.4133C25.4617 9.35822 25.2861 8.6377 25.0295 8.00717C24.7641 7.35541 24.409 6.8026 23.8317 6.25154C23.2544 5.70054 22.6753 5.3616 21.9925 5.1083C21.3319 4.86322 20.5771 4.69568 19.4718 4.64753C18.3643 4.59928 18.0106 4.58789 15.1905 4.58789ZM15.1905 6.37388C17.9632 6.37388 18.2916 6.38397 19.3865 6.43166C20.399 6.47578 20.9488 6.63726 21.3147 6.77292C21.7995 6.95275 22.1453 7.16759 22.5087 7.5144C22.8721 7.86127 23.0971 8.19148 23.2855 8.65412C23.4277 9.00342 23.5969 9.52826 23.643 10.4947C23.693 11.5398 23.7036 11.8534 23.7036 14.5C23.7036 17.1466 23.693 17.4602 23.643 18.5053C23.5969 19.4717 23.4277 19.9966 23.2855 20.3459C23.0971 20.8086 22.8721 21.1387 22.5087 21.4856C22.1453 21.8325 21.7995 22.0473 21.3147 22.2271C20.9488 22.3628 20.399 22.5243 19.3865 22.5683C18.2918 22.616 17.9633 22.6262 15.1905 22.6262C12.4176 22.6262 12.0892 22.616 10.9944 22.5683C9.98198 22.5243 9.43216 22.3628 9.06622 22.2271C8.58149 22.0473 8.23561 21.8325 7.87223 21.4856C7.50884 21.1387 7.28377 20.8086 7.09544 20.3459C6.95326 19.9966 6.78409 19.4717 6.73787 18.5053C6.6879 17.4602 6.67734 17.1466 6.67734 14.5C6.67734 11.8534 6.6879 11.5398 6.73787 10.4947C6.78409 9.52826 6.95326 9.00342 7.09544 8.65412C7.28377 8.19148 7.50884 7.86127 7.87223 7.5144C8.23561 7.16759 8.58149 6.95275 9.06622 6.77292C9.43216 6.63726 9.98198 6.47578 10.9944 6.43166C12.0894 6.38397 12.4178 6.37388 15.1905 6.37388ZM15.1905 9.40999C12.2455 9.40999 9.85808 11.6889 9.85808 14.5C9.85808 17.3111 12.2455 19.59 15.1905 19.59C18.1355 19.59 20.5229 17.3111 20.5229 14.5C20.5229 11.6889 18.1355 9.40999 15.1905 9.40999ZM15.1905 17.804C13.2788 17.804 11.7291 16.3248 11.7291 14.5C11.7291 12.6752 13.2788 11.196 15.1905 11.196C17.1022 11.196 18.6518 12.6752 18.6518 14.5C18.6518 16.3248 17.1022 17.804 15.1905 17.804ZM21.9797 9.20892C21.9797 9.86583 21.4217 10.3983 20.7335 10.3983C20.0454 10.3983 19.4875 9.86583 19.4875 9.20892C19.4875 8.552 20.0454 8.01946 20.7335 8.01946C21.4217 8.01946 21.9797 8.552 21.9797 9.20892Z" fill="#0E0E0E"/>
</g>
<defs>
<clipPath id="clip0_220_43">
<rect width="31" height="29" fill="white"/>
</clipPath>
</defs>
</svg>
