<svg width="11" height="11" viewBox="0 0 11 11" fill="none" xmlns="http://www.w3.org/2000/svg">
<path d="M3.52949 7.47083C3.61352 7.55486 3.72046 7.59687 3.85033 7.59687C3.98019 7.59687 4.08713 7.55486 4.17116 7.47083L5.50033 6.14166L6.84095 7.48229C6.92498 7.56632 7.03009 7.60634 7.15628 7.60237C7.28217 7.59871 7.38713 7.55486 7.47116 7.47083C7.55519 7.3868 7.5972 7.27986 7.5972 7.15C7.5972 7.02014 7.55519 6.91319 7.47116 6.82916L6.14199 5.5L7.48262 4.15937C7.56665 4.07534 7.60667 3.97023 7.6027 3.84404C7.59903 3.71815 7.55519 3.61319 7.47116 3.52916C7.38713 3.44514 7.28019 3.40312 7.15033 3.40312C7.02046 3.40312 6.91352 3.44514 6.82949 3.52916L5.50033 4.85833L4.1597 3.51771C4.07567 3.43368 3.97071 3.3935 3.84483 3.39716C3.71863 3.40114 3.61352 3.44514 3.52949 3.52916C3.44546 3.61319 3.40345 3.72014 3.40345 3.85C3.40345 3.97986 3.44546 4.0868 3.52949 4.17083L4.85866 5.5L3.51803 6.84062C3.43401 6.92465 3.39398 7.02961 3.39795 7.1555C3.40162 7.28169 3.44546 7.3868 3.52949 7.47083ZM5.50033 10.0833C4.8663 10.0833 4.27046 9.96294 3.71283 9.72216C3.15519 9.48169 2.67012 9.15521 2.25762 8.74271C1.84512 8.33021 1.51863 7.84514 1.27816 7.2875C1.03738 6.72986 0.916992 6.13403 0.916992 5.5C0.916992 4.86597 1.03738 4.27014 1.27816 3.7125C1.51863 3.15486 1.84512 2.66979 2.25762 2.25729C2.67012 1.84479 3.15519 1.51815 3.71283 1.27737C4.27046 1.0369 4.8663 0.916664 5.50033 0.916664C6.13435 0.916664 6.73019 1.0369 7.28783 1.27737C7.84546 1.51815 8.33053 1.84479 8.74303 2.25729C9.15553 2.66979 9.48202 3.15486 9.72249 3.7125C9.96327 4.27014 10.0837 4.86597 10.0837 5.5C10.0837 6.13403 9.96327 6.72986 9.72249 7.2875C9.48202 7.84514 9.15553 8.33021 8.74303 8.74271C8.33053 9.15521 7.84546 9.48169 7.28783 9.72216C6.73019 9.96294 6.13435 10.0833 5.50033 10.0833ZM5.50033 9.16666C6.5163 9.16666 7.38148 8.80962 8.09587 8.09554C8.80995 7.38115 9.16699 6.51597 9.16699 5.5C9.16699 4.48403 8.80995 3.61884 8.09587 2.90446C7.38148 2.19037 6.5163 1.83333 5.50033 1.83333C4.48435 1.83333 3.61933 2.19037 2.90524 2.90446C2.19085 3.61884 1.83366 4.48403 1.83366 5.5C1.83366 6.51597 2.19085 7.38115 2.90524 8.09554C3.61933 8.80962 4.48435 9.16666 5.50033 9.16666Z" fill="#FF6363"/>
</svg>
