<svg width="31" height="29" viewBox="0 0 31 29" fill="none" xmlns="http://www.w3.org/2000/svg">
<g clip-path="url(#clip0_220_37)">
<path fill-rule="evenodd" clip-rule="evenodd" d="M26.6691 0C28.7178 0 30.381 1.58764 30.381 3.5431V25.4569C30.381 27.4124 28.7177 29 26.6691 29H3.71182C1.66324 29 0 27.4124 0 25.4569V3.5431C0 1.58764 1.66318 0 3.71182 0H26.6691ZM9.5214 23.9747V11.19H5.06869V23.9747H9.5214ZM25.5746 23.9747V16.6432C25.5746 12.7162 23.378 10.8893 20.4489 10.8893C18.087 10.8893 17.0291 12.1292 16.4367 13.0001V11.19H11.9851C12.0441 12.3897 11.9851 23.9747 11.9851 23.9747H16.4366V16.8348C16.4366 16.4526 16.4655 16.0706 16.5834 15.7975C16.9047 15.0342 17.6377 14.2436 18.8676 14.2436C20.4777 14.2436 21.1228 15.4164 21.1228 17.1344V23.9747H25.5746ZM7.32513 5.02527C5.80169 5.02527 4.80636 5.98131 4.80636 7.23437C4.80636 8.46109 5.77143 9.44346 7.26621 9.44346H7.29493C8.8475 9.44346 9.81394 8.46109 9.81394 7.23437C9.78516 5.98306 8.85023 5.02799 7.32513 5.02527Z" fill="#0E0E0E"/>
</g>
<defs>
<clipPath id="clip0_220_37">
<rect width="31" height="29" fill="white"/>
</clipPath>
</defs>
</svg>
