<svg width="210" height="46" viewBox="0 0 210 46" fill="none" xmlns="http://www.w3.org/2000/svg">
<g clip-path="url(#clip0_220_3)">
<path d="M7.01597 36V10.3471H14.2721V30.2464H26.5121V36H7.01597ZM41.4343 36V32.2987L40.9579 31.3825V24.5662C40.9579 23.4667 40.6159 22.6239 39.9318 22.0375C39.2721 21.4267 38.2094 21.1213 36.7435 21.1213C35.7907 21.1213 34.8256 21.2801 33.8484 21.5978C32.8711 21.8909 32.0405 22.3063 31.3564 22.8437L29.011 18.1163C30.1348 17.3834 31.4786 16.8214 33.0422 16.4305C34.6302 16.0152 36.206 15.8075 37.7696 15.8075C40.9946 15.8075 43.4865 16.5527 45.2456 18.043C47.0291 19.5089 47.9208 21.8176 47.9208 24.9693V36H41.4343ZM35.5708 36.3298C33.9828 36.3298 32.639 36.0611 31.5396 35.5236C30.4402 34.9861 29.5974 34.2532 29.011 33.3248C28.4491 32.3964 28.1681 31.3581 28.1681 30.2098C28.1681 28.9882 28.4735 27.9377 29.0843 27.0581C29.7195 26.1542 30.6845 25.4701 31.9794 25.0059C33.2743 24.5173 34.9478 24.273 37 24.273H41.6908V27.901H37.9529C36.829 27.901 36.035 28.0843 35.5708 28.4507C35.131 28.8172 34.9112 29.3058 34.9112 29.9166C34.9112 30.5274 35.1433 31.016 35.6075 31.3825C36.0716 31.749 36.7069 31.9322 37.5131 31.9322C38.2705 31.9322 38.9545 31.749 39.5653 31.3825C40.2005 30.9916 40.6647 30.4052 40.9579 29.6234L41.9107 32.1887C41.5443 33.5569 40.8235 34.5952 39.7486 35.3037C38.698 35.9878 37.3054 36.3298 35.5708 36.3298ZM64.8125 36.3298C63.029 36.3298 61.5387 35.9634 60.3416 35.2304C59.1689 34.4975 58.2893 33.3736 57.703 31.8589C57.1166 30.3442 56.8235 28.4019 56.8235 26.032C56.8235 23.7111 57.1288 21.7932 57.7396 20.2785C58.3748 18.7637 59.291 17.6399 60.4881 16.9069C61.6853 16.174 63.1267 15.8075 64.8125 15.8075C66.6204 15.8075 68.2573 16.2229 69.7232 17.0535C71.2135 17.8842 72.3862 19.0691 73.2413 20.6083C74.1208 22.123 74.5606 23.9309 74.5606 26.032C74.5606 28.1576 74.1208 29.9899 73.2413 31.5291C72.3862 33.0438 71.2135 34.2287 69.7232 35.0838C68.2573 35.9145 66.6204 36.3298 64.8125 36.3298ZM52.3159 36V8.80797H59.2788V19.4722L58.9123 26.032L58.949 32.5918V36H52.3159ZM63.3466 30.7961C64.1284 30.7961 64.8247 30.6129 65.4355 30.2464C66.0707 29.88 66.5715 29.3425 66.938 28.634C67.3289 27.901 67.5244 27.0337 67.5244 26.032C67.5244 25.0304 67.3289 24.1875 66.938 23.5034C66.5715 22.7949 66.0707 22.2574 65.4355 21.8909C64.8247 21.5245 64.1284 21.3412 63.3466 21.3412C62.5648 21.3412 61.8563 21.5245 61.2211 21.8909C60.6103 22.2574 60.1095 22.7949 59.7186 23.5034C59.3521 24.1875 59.1689 25.0304 59.1689 26.032C59.1689 27.0337 59.3521 27.901 59.7186 28.634C60.1095 29.3425 60.6103 29.88 61.2211 30.2464C61.8563 30.6129 62.5648 30.7961 63.3466 30.7961Z" fill="#00949C"/>
<path fill-rule="evenodd" clip-rule="evenodd" d="M159.553 14.9529C160.543 15.2091 161.477 15.6022 162.334 16.1147L164.381 14.0894C165.859 15.0827 167.126 16.3639 168.106 17.8521L166.059 19.8773C166.554 20.7232 166.933 21.6428 167.179 22.6151L170.058 22.6291C170.219 23.4645 170.307 24.3244 170.307 25.2089C170.307 26.1391 170.212 27.0482 170.033 27.9221L167.154 27.9081C166.898 28.8768 166.508 29.7929 166.006 30.6318L168.032 32.6781C167.038 34.1558 165.757 35.4229 164.268 36.4022L162.243 34.3559C161.414 34.8403 160.512 35.2158 159.557 35.4615V38.3397C158.7 38.5117 157.815 38.6029 156.91 38.6029C156.004 38.6029 155.119 38.5117 154.262 38.3397V35.4615C153.272 35.2053 152.338 34.8122 151.485 34.2997L149.438 36.325C147.96 35.3316 146.693 34.0505 145.713 32.5623L147.76 30.537C147.265 29.6912 146.886 28.7715 146.64 27.7993L143.761 27.7852C143.6 26.9499 143.512 26.0899 143.512 25.2054C143.512 24.2753 143.607 23.3662 143.789 22.4922L146.668 22.5063C146.925 21.5375 147.311 20.6214 147.816 19.7826L145.791 17.7363C146.784 16.2586 148.066 14.9915 149.554 14.0122L151.58 16.055C152.409 15.5706 153.311 15.195 154.266 14.9493V12.0712C155.123 11.8992 156.007 11.8079 156.913 11.8079C157.819 11.8079 158.704 11.8992 159.56 12.0712V14.9493L159.553 14.9529ZM156.906 18.6629C153.29 18.6629 150.358 21.5937 150.358 25.2089C150.358 28.8242 153.29 31.755 156.906 31.755C160.522 31.755 163.454 28.8242 163.454 25.2089C163.454 21.5937 160.522 18.6629 156.906 18.6629ZM156.906 19.428C153.715 19.428 151.124 22.0149 151.124 25.2089C151.124 28.403 153.711 30.9898 156.906 30.9898C160.101 30.9898 162.688 28.403 162.688 25.2089C162.688 22.0149 160.101 19.428 156.906 19.428ZM156.906 18.1996C153.034 18.1996 149.895 21.3375 149.895 25.2089C149.895 29.0804 153.034 32.2183 156.906 32.2183C160.779 32.2183 163.917 29.0804 163.917 25.2089C163.917 21.3375 160.779 18.1996 156.906 18.1996Z" fill="#00949C"/>
<path d="M86.7134 20.2785H98.6237V25.7022H86.7134V20.2785ZM87.2265 30.393H100.639V36H80.0437V10.3471H100.163V15.9541H87.2265V30.393ZM111.484 36.3298C109.798 36.3298 108.149 36.1344 106.537 35.7435C104.949 35.3526 103.666 34.8639 102.689 34.2776L104.777 29.5135C105.706 30.0754 106.793 30.5274 108.039 30.8694C109.285 31.187 110.507 31.3458 111.704 31.3458C112.876 31.3458 113.683 31.2237 114.122 30.9794C114.587 30.7351 114.819 30.4052 114.819 29.9899C114.819 29.599 114.599 29.318 114.159 29.147C113.744 28.9516 113.182 28.805 112.473 28.7073C111.789 28.6095 111.032 28.4996 110.201 28.3774C109.371 28.2553 108.528 28.0965 107.673 27.901C106.842 27.6811 106.072 27.3635 105.364 26.9482C104.68 26.5084 104.13 25.9221 103.715 25.1892C103.299 24.4562 103.092 23.5278 103.092 22.404C103.092 21.1336 103.458 20.0097 104.191 19.0325C104.949 18.0308 106.048 17.249 107.489 16.6871C108.931 16.1007 110.69 15.8075 112.767 15.8075C114.159 15.8075 115.564 15.9541 116.981 16.2473C118.422 16.516 119.632 16.9314 120.609 17.4933L118.52 22.2208C117.543 21.6588 116.566 21.2801 115.588 21.0847C114.611 20.8648 113.683 20.7549 112.803 20.7549C111.63 20.7549 110.8 20.8892 110.311 21.158C109.847 21.4267 109.615 21.7566 109.615 22.1475C109.615 22.5384 109.823 22.8437 110.238 23.0636C110.653 23.2591 111.203 23.4179 111.887 23.54C112.596 23.6378 113.365 23.7477 114.196 23.8699C115.026 23.9676 115.857 24.1264 116.688 24.3463C117.543 24.5662 118.312 24.896 118.997 25.3357C119.705 25.7511 120.267 26.3252 120.682 27.0581C121.098 27.7667 121.305 28.6828 121.305 29.8067C121.305 31.0282 120.927 32.1276 120.169 33.1049C119.436 34.0821 118.337 34.8639 116.871 35.4503C115.43 36.0366 113.634 36.3298 111.484 36.3298ZM134.457 36.3298C132.258 36.3298 130.291 35.8901 128.557 35.0105C126.847 34.131 125.503 32.9217 124.526 31.3825C123.548 29.8189 123.06 28.0354 123.06 26.032C123.06 24.0287 123.548 22.2574 124.526 20.7182C125.503 19.1791 126.847 17.9819 128.557 17.1268C130.291 16.2473 132.258 15.8075 134.457 15.8075C136.705 15.8075 138.647 16.2839 140.284 17.2368C141.921 18.1896 143.081 19.5333 143.765 21.2679L138.378 24.0165C137.914 23.0881 137.34 22.4162 136.656 22.0009C135.972 21.5611 135.227 21.3412 134.42 21.3412C133.614 21.3412 132.881 21.5245 132.221 21.8909C131.562 22.2574 131.037 22.7949 130.646 23.5034C130.279 24.1875 130.096 25.0304 130.096 26.032C130.096 27.0581 130.279 27.9255 130.646 28.634C131.037 29.3425 131.562 29.88 132.221 30.2464C132.881 30.6129 133.614 30.7961 134.42 30.7961C135.227 30.7961 135.972 30.5885 136.656 30.1731C137.34 29.7334 137.914 29.0493 138.378 28.1209L143.765 30.8694C143.081 32.6041 141.921 33.9478 140.284 34.9006C138.647 35.8534 136.705 36.3298 134.457 36.3298Z" fill="black"/>
<path d="M172.543 36V8.80797H179.506V36H172.543ZM196.161 36V32.2987L195.684 31.3825V24.5662C195.684 23.4667 195.342 22.6239 194.658 22.0375C193.999 21.4267 192.936 21.1213 191.47 21.1213C190.517 21.1213 189.552 21.2801 188.575 21.5978C187.598 21.8909 186.767 22.3063 186.083 22.8437L183.737 18.1163C184.861 17.3834 186.205 16.8214 187.769 16.4305C189.357 16.0152 190.932 15.8075 192.496 15.8075C195.721 15.8075 198.213 16.5527 199.972 18.043C201.755 19.5089 202.647 21.8176 202.647 24.9693V36H196.161ZM190.297 36.3298C188.709 36.3298 187.365 36.0611 186.266 35.5236C185.167 34.9861 184.324 34.2532 183.737 33.3248C183.175 32.3964 182.894 31.3581 182.894 30.2098C182.894 28.9882 183.2 27.9377 183.811 27.0581C184.446 26.1542 185.411 25.4701 186.706 25.0059C188.001 24.5173 189.674 24.273 191.726 24.273H196.417V27.901H192.679C191.555 27.901 190.761 28.0843 190.297 28.4507C189.857 28.8172 189.638 29.3058 189.638 29.9166C189.638 30.5274 189.87 31.016 190.334 31.3825C190.798 31.749 191.433 31.9322 192.239 31.9322C192.997 31.9322 193.681 31.749 194.292 31.3825C194.927 30.9916 195.391 30.4052 195.684 29.6234L196.637 32.1887C196.271 33.5569 195.55 34.5952 194.475 35.3037C193.424 35.9878 192.032 36.3298 190.297 36.3298Z" fill="black"/>
<path d="M81.6837 22.6379L81.7103 22.6113L81.7479 22.6112L93.4206 22.5993L93.4205 22.4625L81.6543 22.4745L78.9201 25.2142L78.8935 25.2409L78.8559 25.2409L71.3292 25.2486L71.3294 25.3854L78.9496 25.3777L81.6837 22.6379Z" fill="#00949C" stroke="black" stroke-width="0.181661"/>
<path d="M92.9044 23.3594C93.0681 23.4686 93.2606 23.5268 93.4574 23.5267C93.7213 23.5256 93.974 23.4201 94.1604 23.2333C94.3468 23.0465 94.4517 22.7936 94.4524 22.5297C94.4521 22.3329 94.3934 22.1406 94.2839 21.9771C94.1743 21.8135 94.0187 21.6861 93.8367 21.611C93.6547 21.5359 93.4546 21.5164 93.2615 21.555C93.0685 21.5936 92.8912 21.6886 92.7522 21.828C92.6131 21.9673 92.5185 22.1448 92.4802 22.3379C92.442 22.531 92.4619 22.7311 92.5374 22.913C92.6129 23.0948 92.7406 23.2501 92.9044 23.3594ZM92.9451 21.7649C93.0965 21.6635 93.2745 21.6092 93.4568 21.609C93.5779 21.6085 93.698 21.6321 93.81 21.6782C93.922 21.7243 94.0239 21.7921 94.1097 21.8777C94.1955 21.9633 94.2635 22.065 94.3098 22.177C94.3561 22.2889 94.3799 22.4089 94.3797 22.53C94.3799 22.7123 94.326 22.8905 94.2248 23.0421C94.1237 23.1937 93.9799 23.312 93.8115 23.3819C93.6432 23.4518 93.4579 23.4702 93.2791 23.4348C93.1003 23.3994 92.936 23.3118 92.807 23.183C92.678 23.0543 92.59 22.8902 92.5543 22.7114C92.5185 22.5327 92.5366 22.3474 92.6061 22.1789C92.6757 22.0104 92.7936 21.8664 92.9451 21.7649Z" fill="#00949C" stroke="black" stroke-width="0.181661"/>
<path d="M71.326 26.3124C71.5118 26.3062 71.6923 26.2481 71.8471 26.1444C72.0107 26.0349 72.1381 25.8793 72.2132 25.6973C72.2883 25.5153 72.3078 25.3151 72.2692 25.1221C72.2306 24.929 72.1356 24.7518 71.9962 24.6127C71.8569 24.4736 71.6794 24.379 71.4863 24.3408C71.2932 24.3026 71.093 24.3225 70.9112 24.398C70.7294 24.4735 70.574 24.6012 70.4648 24.7649C70.3556 24.9287 70.2973 25.1211 70.2975 25.3179C70.2986 25.5818 70.4041 25.8345 70.5909 26.0209C70.7713 26.201 71.0134 26.305 71.2675 26.3125L71.2937 26.3124L71.326 26.3124ZM71.2911 24.3952C71.4733 24.395 71.6516 24.4489 71.8032 24.5501C71.9548 24.6512 72.0731 24.795 72.143 24.9634C72.2129 25.1317 72.2313 25.317 72.1959 25.4958C72.1605 25.6746 72.0729 25.8389 71.9442 25.9679C71.8154 26.0969 71.6513 26.1849 71.4726 26.2206C71.2938 26.2564 71.1085 26.2383 70.94 26.1688C70.7715 26.0992 70.6275 25.9813 70.526 25.8298C70.4246 25.6784 70.3703 25.5004 70.3701 25.3181C70.3697 25.197 70.3932 25.0769 70.4393 24.9649C70.4854 24.8528 70.5532 24.751 70.6388 24.6652C70.7244 24.5794 70.8261 24.5114 70.9381 24.4651C71.0501 24.4187 71.1701 24.395 71.2913 24.3952L71.2911 24.486L71.2911 24.3952Z" fill="#00949C" stroke="black" stroke-width="0.181661"/>
<path d="M49.5541 16.0881L49.5806 16.0614L49.6183 16.0614L56.0021 16.0549L56.0019 15.9181L49.5219 15.9247L47.0404 18.4112L47.0139 18.4378L46.9762 18.4379L41.6287 18.4433L41.6294 18.5815L47.0712 18.576L49.5541 16.0881Z" fill="#00949C" stroke="black" stroke-width="0.181661"/>
<path d="M55.4857 16.8149C55.6495 16.9242 55.842 16.9824 56.0388 16.9823C56.3028 16.9816 56.5558 16.8763 56.7423 16.6894C56.9288 16.5025 57.0336 16.2493 57.0337 15.9853L57.1245 15.9853L57.0337 15.9854C57.0335 15.7885 56.9748 15.5962 56.8652 15.4326C56.7557 15.269 56.6001 15.1417 56.4181 15.0665C56.2361 14.9914 56.0359 14.9719 55.8429 15.0105C55.6498 15.0491 55.4726 15.1441 55.3335 15.2835C55.1944 15.4228 55.0998 15.6003 55.0616 15.7934C55.0234 15.9866 55.0433 16.1867 55.1188 16.3685C55.1943 16.5503 55.322 16.7057 55.4857 16.8149ZM55.5264 15.2204C55.6778 15.119 55.856 15.0647 56.0382 15.0645C56.1593 15.0643 56.2792 15.088 56.3911 15.1342C56.5031 15.1805 56.6048 15.2483 56.6905 15.3338C56.7762 15.4193 56.8442 15.5209 56.8906 15.6327C56.9371 15.7445 56.961 15.8644 56.9611 15.9855C56.9612 16.1678 56.9073 16.346 56.8062 16.4976C56.705 16.6493 56.5612 16.7675 56.3929 16.8374C56.2245 16.9073 56.0393 16.9257 55.8605 16.8903C55.6817 16.8549 55.5174 16.7673 55.3883 16.6386C55.2593 16.5098 55.1714 16.3457 55.1356 16.167C55.0999 15.9882 55.1179 15.8029 55.1875 15.6344C55.257 15.466 55.375 15.3219 55.5264 15.2204Z" fill="#00949C" stroke="black" stroke-width="0.181661"/>
<path d="M41.5933 19.5086C41.5932 19.5086 41.5931 19.5086 41.5931 19.5086C41.593 19.5086 41.5929 19.5086 41.5929 19.5086L41.5929 19.5076L41.4451 19.5086L41.4203 19.5088L41.416 19.509L41.4122 19.5092L41.4057 19.51C41.4009 19.511 41.3752 19.5208 41.3572 19.5343C41.3528 19.5466 41.3505 19.5589 41.3499 19.5708L41.5933 19.5086ZM41.5933 19.5086L41.5933 19.5076C41.5933 19.5076 41.5933 19.5076 41.5933 19.5076M41.5933 19.5086L41.5933 19.5076M41.5933 19.5076C41.7901 19.5074 41.9825 19.4488 42.1461 19.3392C42.3096 19.2296 42.437 19.074 42.5121 18.892C42.5873 18.71 42.6068 18.5099 42.5681 18.3168C42.5295 18.1238 42.4345 17.9465 42.2952 17.8074C42.1558 17.6684 41.9784 17.5737 41.7852 17.5355C41.5921 17.4973 41.392 17.5172 41.2102 17.5927C41.0283 17.6682 40.873 17.7959 40.7637 17.9597C40.6545 18.1234 40.5963 18.3159 40.5964 18.5127C40.5971 18.7768 40.7024 19.0297 40.8893 19.2162C41.0762 19.4027 41.3294 19.5075 41.5934 19.5076L41.7411 19.5076L41.7658 19.5077L41.7701 19.5078L41.774 19.5081L41.7805 19.5088C41.7853 19.5097 41.8111 19.5195 41.8292 19.533C41.8339 19.5456 41.8362 19.5582 41.8368 19.5705C41.9645 19.541 42.0866 19.4884 42.1966 19.4146C42.3751 19.2951 42.5141 19.1252 42.5961 18.9267C42.6781 18.7281 42.6993 18.5097 42.6572 18.299C42.6151 18.0883 42.5114 17.8949 42.3593 17.7431C42.2073 17.5914 42.0136 17.4881 41.8029 17.4464C41.5921 17.4047 41.3737 17.4264 41.1753 17.5088C40.9769 17.5912 40.8074 17.7306 40.6882 17.9093C40.569 18.088 40.5054 18.2981 40.5056 18.5129L41.5933 19.5076ZM41.5926 17.5899L41.5928 17.5899C41.775 17.59 41.953 17.6442 42.1044 17.7454C42.2558 17.8467 42.3738 17.9905 42.4436 18.1588C42.5133 18.3271 42.5316 18.5122 42.4961 18.6909C42.4607 18.8696 42.3731 19.0337 42.2444 19.1626C42.1158 19.2916 41.9518 19.3795 41.7732 19.4153C41.5946 19.4511 41.4094 19.4332 41.241 19.3638C41.0726 19.2944 40.9285 19.1767 40.8269 19.0255C40.7254 18.8743 40.6709 18.6964 40.6704 18.5142L40.6704 18.514C40.6702 18.2692 40.7673 18.0343 40.9402 17.8611C41.1131 17.6878 41.3478 17.5902 41.5926 17.5899Z" fill="#00949C" stroke="black" stroke-width="0.181661"/>
<path d="M58.5678 31.8056L61.2612 31.8029L61.2611 31.6647L58.6625 31.6673L58.6249 31.6674L58.5983 31.6408L56.463 29.5099L56.3663 29.6067L58.5678 31.8056Z" fill="#00949C" stroke="black" stroke-width="0.181661"/>
<path d="M60.7434 32.5635C60.9077 32.6727 61.1008 32.7307 61.2981 32.7302C61.5624 32.7294 61.8155 32.6239 62.002 32.4367C62.1885 32.2495 62.2931 31.996 62.2928 31.7317C62.2926 31.5344 62.2339 31.3415 62.124 31.1776C62.0142 31.0136 61.8582 30.886 61.6758 30.8107C61.4933 30.7354 61.2927 30.716 61.0992 30.7548C60.9057 30.7936 60.7281 30.889 60.5888 31.0288C60.4495 31.1686 60.3548 31.3466 60.3167 31.5402C60.2786 31.7339 60.2988 31.9344 60.3748 32.1166C60.4507 32.2987 60.579 32.4543 60.7434 32.5635ZM60.7828 30.9664C60.9349 30.8649 61.1137 30.8108 61.2966 30.8111C61.5408 30.8114 61.7749 30.9084 61.9478 31.0809C62.1207 31.2534 62.2182 31.4874 62.219 31.7316C62.2196 31.9144 62.1659 32.0934 62.0647 32.2457C61.9636 32.398 61.8195 32.5168 61.6507 32.5872C61.4819 32.6575 61.296 32.6762 61.1167 32.6408C60.9373 32.6054 60.7724 32.5175 60.643 32.3884C60.5136 32.2592 60.4254 32.0946 60.3896 31.9152C60.3539 31.7359 60.3722 31.55 60.4422 31.3811C60.5122 31.2122 60.6307 31.0678 60.7828 30.9664Z" fill="#00949C" stroke="black" stroke-width="0.181661"/>
<path d="M55.6644 30.2177L55.6845 30.2377L55.7057 30.2588C55.8416 30.386 56.0107 30.4727 56.1938 30.5087C56.3869 30.5467 56.5869 30.5266 56.7685 30.451C56.9502 30.3753 57.1054 30.2476 57.2144 30.0838C57.3235 29.9201 57.3817 29.7277 57.3815 29.5309C57.3812 29.3341 57.3227 29.1418 57.2133 28.9783C57.1039 28.8147 56.9485 28.6873 56.7667 28.612C56.5848 28.5368 56.3848 28.5171 56.1918 28.5555C55.9989 28.5938 55.8216 28.6885 55.6824 28.8275C55.4961 29.015 55.3917 29.2686 55.3919 29.5329C55.3922 29.7879 55.4899 30.0328 55.6644 30.2177ZM57.0394 28.8792L57.0395 28.8794C57.1685 29.0082 57.2564 29.1723 57.2921 29.351C57.3278 29.5298 57.3097 29.7151 57.2401 29.8836C57.1705 30.052 57.0525 30.1961 56.9011 30.2975C56.7496 30.3989 56.5715 30.4531 56.3892 30.4533C56.2069 30.4535 56.0287 30.3996 55.877 30.2985C55.7254 30.1974 55.6071 30.0536 55.5371 29.8853C55.4672 29.717 55.4487 29.5317 55.4841 29.3529C55.5194 29.1741 55.607 29.0097 55.7357 28.8807L55.7358 28.8805C55.9088 28.708 56.143 28.6109 56.3873 28.6107C56.6316 28.6104 56.8661 28.707 57.0394 28.8792Z" fill="#00949C" stroke="black" stroke-width="0.181661"/>
<path d="M59.4565 20.9425L61.3591 19.036L61.2613 18.9384L59.4257 20.7777L59.3991 20.8044L59.3615 20.8044L56.3448 20.8075L56.3449 20.9444L59.4565 20.9425Z" fill="#00949C" stroke="black" stroke-width="0.181661"/>
<path d="M61.5306 19.9402C61.7241 19.9012 61.9016 19.8057 62.0408 19.6658C62.2271 19.4784 62.3315 19.2248 62.331 18.9606C62.3305 18.6963 62.2251 18.4431 62.0381 18.2564C61.8984 18.117 61.7205 18.0222 61.5269 17.9839C61.3333 17.9457 61.1327 17.9657 60.9505 18.0415C60.7683 18.1173 60.6126 18.2454 60.5033 18.4097C60.3939 18.574 60.3357 18.767 60.3361 18.9643C60.3365 19.1617 60.3954 19.3545 60.5054 19.5183C60.6154 19.6822 60.7715 19.8097 60.954 19.8848C61.1365 19.9599 61.3371 19.9792 61.5306 19.9402ZM60.4292 18.783C60.4649 18.6037 60.5532 18.439 60.6826 18.3099C60.8555 18.1374 61.0897 18.0404 61.3339 18.0402C61.5782 18.0399 61.8125 18.1364 61.9858 18.3086C62.1155 18.4374 62.2041 18.6019 62.2402 18.7811C62.2764 18.9604 62.2585 19.1463 62.1889 19.3154C62.1193 19.4845 62.0011 19.6291 61.8492 19.7309C61.6973 19.8327 61.5187 19.8872 61.3358 19.8874C61.153 19.8875 60.9742 19.8335 60.8221 19.7319C60.67 19.6304 60.5515 19.4861 60.4815 19.3171C60.4116 19.1482 60.3934 18.9623 60.4292 18.783Z" fill="#00949C" stroke="black" stroke-width="0.181661"/>
<path d="M56.2807 21.8727L56.309 21.8726L56.3389 21.8725C56.525 21.8664 56.7059 21.8081 56.8608 21.7041C57.0242 21.5944 57.1514 21.4388 57.2264 21.2569C57.3013 21.075 57.3207 20.8749 57.2821 20.682C57.2434 20.489 57.1484 20.3119 57.0092 20.1729C56.8699 20.0339 56.6925 19.9393 56.4995 19.901C56.3065 19.8628 56.1065 19.8826 55.9247 19.9579C55.743 20.0332 55.5876 20.1608 55.4782 20.3244C55.3689 20.4879 55.3105 20.6802 55.3104 20.8769C55.3112 21.1412 55.4167 21.3944 55.6038 21.5811C55.7843 21.7612 56.0265 21.8653 56.2807 21.8727ZM56.3065 19.954L56.3067 19.954C56.489 19.9538 56.6672 20.0078 56.8188 20.1089C56.9704 20.21 57.0887 20.3539 57.1586 20.5222C57.2285 20.6905 57.2469 20.8758 57.2115 21.0546C57.1761 21.2334 57.0885 21.3977 56.9598 21.5267C56.831 21.6558 56.6669 21.7437 56.4882 21.7795C56.3094 21.8152 56.1241 21.7972 55.9556 21.7276C55.7872 21.6581 55.6431 21.5401 55.5416 21.3887C55.4402 21.2372 55.3859 21.0591 55.3857 20.8769L55.3857 20.8767C55.3859 20.6323 55.483 20.3981 55.6555 20.2252C55.8281 20.0522 56.0622 19.9547 56.3065 19.954Z" fill="#00949C" stroke="black" stroke-width="0.181661"/>
<path d="M9.46773 16.8146L11.3434 20.8477L11.4687 20.7894L9.63225 16.8406L9.61638 16.8065L9.62929 16.7712L10.9211 13.2332L10.7916 13.1852L9.46773 16.8146Z" fill="#00949C" stroke="black" stroke-width="0.181661"/>
<path d="M10.4362 20.6993C10.4062 20.8944 10.4348 21.094 10.5184 21.2729L10.4361 21.3113L10.5183 21.2727C10.6304 21.5116 10.8324 21.6964 11.0802 21.7869C11.328 21.8774 11.6016 21.8662 11.8412 21.7558L11.8792 21.8383L11.8411 21.7559C12.0202 21.6729 12.1707 21.5387 12.2735 21.3701C12.3763 21.2016 12.4268 21.0063 12.4186 20.8091C12.4103 20.6118 12.3438 20.4215 12.2273 20.2621C12.1107 20.1027 11.9496 19.9815 11.7641 19.9138C11.5787 19.8461 11.3773 19.8349 11.1855 19.8817C10.9937 19.9285 10.8201 20.0312 10.6867 20.1767C10.5534 20.3223 10.4661 20.5041 10.4362 20.6993ZM11.9018 20.0634C12.0578 20.1587 12.182 20.2981 12.2586 20.4639C12.3613 20.686 12.3717 20.9396 12.2875 21.1693C12.2034 21.3989 12.0315 21.5858 11.8098 21.689C11.6441 21.766 11.4592 21.7922 11.2786 21.7642C11.098 21.7361 10.9298 21.6551 10.7953 21.5314C10.6607 21.4078 10.5659 21.2469 10.5228 21.0693C10.4797 20.8917 10.4902 20.7053 10.5531 20.5337C10.616 20.3621 10.7284 20.2131 10.876 20.1054C11.0237 19.9977 11.1999 19.9362 11.3825 19.9287C11.5651 19.9212 11.7459 19.9681 11.9018 20.0634Z" fill="#00949C" stroke="black" stroke-width="0.181661"/>
<path d="M9.93412 12.832L9.93418 12.8318L9.93465 12.832L9.98481 12.6935L9.99297 12.6708L9.99395 12.668L9.99462 12.6659L9.99567 12.6623C9.99645 12.6592 9.99829 12.6293 9.99166 12.6035C9.98029 12.5951 9.96865 12.5891 9.95707 12.5849L9.93412 12.832ZM9.93412 12.832L9.93459 12.8321C9.86712 13.0171 9.856 13.2179 9.90265 13.4091C9.94929 13.6004 10.0516 13.7736 10.1966 13.9067C10.3417 14.0398 10.5229 14.127 10.7175 14.1571C10.912 14.1872 11.1111 14.159 11.2896 14.076C11.4682 13.993 11.618 13.8589 11.7204 13.6907C11.8227 13.5225 11.8728 13.3277 11.8645 13.131C11.8561 12.9343 11.7896 12.7445 11.6734 12.5856C11.5572 12.4267 11.3965 12.3059 11.2116 12.2383M9.93412 12.832L9.93454 12.8323M9.93454 12.8323L9.88387 12.9709L9.87548 12.9937L9.87444 12.9964L9.87372 12.9982L9.87256 13.0009C9.87167 13.0028 9.86638 13.0124 9.86128 13.0196C9.83654 13.0275 9.81393 13.0274 9.79397 13.0226C9.77501 13.158 9.78168 13.2965 9.8144 13.4307C9.8653 13.6394 9.97694 13.8283 10.1352 13.9736C10.2935 14.1189 10.4913 14.214 10.7036 14.2469C10.9159 14.2797 11.1331 14.2489 11.3279 14.1583C11.5227 14.0678 11.6863 13.9214 11.798 13.7379C11.9096 13.5543 11.9643 13.3418 11.9552 13.1272C11.9461 12.9125 11.8736 12.7054 11.7467 12.532C11.6199 12.3586 11.4445 12.2267 11.2427 12.1529M9.93454 12.8323C10.0255 12.5844 10.211 12.3827 10.4504 12.2713C10.6898 12.16 10.9635 12.1481 11.2116 12.2383M9.93454 12.8323L11.2116 12.2383M11.2427 12.1529L11.2117 12.2383C11.2117 12.2383 11.2117 12.2383 11.2116 12.2383M11.2427 12.1529L11.2116 12.2383C11.2116 12.2383 11.2116 12.2383 11.2116 12.2383M11.2427 12.1529L11.2116 12.2383M11.7356 13.491L11.7356 13.4912C11.673 13.6624 11.5611 13.8112 11.4139 13.9188C11.2668 14.0264 11.0911 14.088 10.909 14.0957C10.7269 14.1034 10.5466 14.057 10.3908 13.9623C10.2351 13.8676 10.111 13.7288 10.0341 13.5635C9.95725 13.3982 9.93112 13.2139 9.95902 13.0338C9.98692 12.8536 10.0676 12.6858 10.1909 12.5515C10.3141 12.4173 10.4744 12.3226 10.6515 12.2794C10.8286 12.2362 11.0145 12.2465 11.1858 12.309L11.1859 12.309C11.4153 12.3933 11.6019 12.565 11.7049 12.7865C11.8079 13.008 11.819 13.2613 11.7356 13.491Z" fill="#00949C" stroke="black" stroke-width="0.181661"/>
</g>
<defs>
<clipPath id="clip0_220_3">
<rect width="210" height="45.2336" fill="white"/>
</clipPath>
</defs>
</svg>
