<svg width="210" height="30" viewBox="0 0 210 46" fill="none" xmlns="http://www.w3.org/2000/svg">
<g clip-path="url(#clip0_1_96)">
<path d="M7.01603 36V10.3471H14.2721V30.2464H26.5122V36H7.01603ZM41.4344 36V32.2987L40.958 31.3825V24.5662C40.958 23.4667 40.6159 22.6239 39.9318 22.0375C39.2722 21.4267 38.2094 21.1213 36.7436 21.1213C35.7907 21.1213 34.8257 21.2801 33.8485 21.5978C32.8712 21.8909 32.0405 22.3063 31.3565 22.8437L29.0111 18.1163C30.1349 17.3834 31.4786 16.8214 33.0422 16.4305C34.6303 16.0152 36.2061 15.8075 37.7697 15.8075C40.9946 15.8075 43.4866 16.5527 45.2457 18.043C47.0291 19.5089 47.9209 21.8176 47.9209 24.9693V36H41.4344ZM35.5709 36.3298C33.9828 36.3298 32.6391 36.0611 31.5397 35.5236C30.4403 34.9861 29.5974 34.2532 29.0111 33.3248C28.4491 32.3964 28.1682 31.3581 28.1682 30.2098C28.1682 28.9882 28.4736 27.9377 29.0844 27.0581C29.7196 26.1542 30.6846 25.4701 31.9795 25.0059C33.2743 24.5173 34.9479 24.273 37.0001 24.273H41.6909V27.901H37.9529C36.8291 27.901 36.0351 28.0843 35.5709 28.4507C35.1311 28.8172 34.9112 29.3058 34.9112 29.9166C34.9112 30.5274 35.1433 31.016 35.6075 31.3825C36.0717 31.749 36.7069 31.9322 37.5132 31.9322C38.2705 31.9322 38.9546 31.749 39.5654 31.3825C40.2006 30.9916 40.6648 30.4052 40.958 29.6234L41.9108 32.1887C41.5443 33.5569 40.8236 34.5952 39.7486 35.3037C38.6981 35.9878 37.3055 36.3298 35.5709 36.3298ZM64.8125 36.3298C63.0291 36.3298 61.5388 35.9634 60.3416 35.2304C59.1689 34.4975 58.2894 33.3736 57.703 31.8589C57.1167 30.3442 56.8235 28.4019 56.8235 26.032C56.8235 23.7111 57.1289 21.7932 57.7397 20.2785C58.3749 18.7637 59.2911 17.6399 60.4882 16.9069C61.6853 16.174 63.1268 15.8075 64.8125 15.8075C66.6205 15.8075 68.2574 16.2229 69.7232 17.0535C71.2135 17.8842 72.3862 19.0691 73.2413 20.6083C74.1209 22.123 74.5606 23.9309 74.5606 26.032C74.5606 28.1576 74.1209 29.9899 73.2413 31.5291C72.3862 33.0438 71.2135 34.2287 69.7232 35.0838C68.2574 35.9145 66.6205 36.3298 64.8125 36.3298ZM52.3159 36V8.80797H59.2789V19.4722L58.9124 26.032L58.949 32.5918V36H52.3159ZM63.3467 30.7961C64.1285 30.7961 64.8248 30.6129 65.4355 30.2464C66.0708 29.88 66.5716 29.3425 66.9381 28.634C67.329 27.901 67.5244 27.0337 67.5244 26.032C67.5244 25.0304 67.329 24.1875 66.9381 23.5034C66.5716 22.7949 66.0708 22.2574 65.4355 21.8909C64.8248 21.5245 64.1285 21.3412 63.3467 21.3412C62.5649 21.3412 61.8564 21.5245 61.2211 21.8909C60.6104 22.2574 60.1095 22.7949 59.7186 23.5034C59.3521 24.1875 59.1689 25.0304 59.1689 26.032C59.1689 27.0337 59.3521 27.901 59.7186 28.634C60.1095 29.3425 60.6104 29.88 61.2211 30.2464C61.8564 30.6129 62.5649 30.7961 63.3467 30.7961Z" fill="#00949C"/>
<path fill-rule="evenodd" clip-rule="evenodd" d="M159.553 14.9529C160.543 15.2091 161.477 15.6022 162.334 16.1147L164.381 14.0895C165.859 15.0828 167.126 16.3639 168.106 17.8521L166.059 19.8774C166.554 20.7233 166.933 21.6429 167.179 22.6151L170.058 22.6292C170.219 23.4645 170.307 24.3245 170.307 25.209C170.307 26.1391 170.212 27.0482 170.033 27.9222L167.154 27.9081C166.898 28.8769 166.508 29.793 166.006 30.6319L168.032 32.6782C167.039 34.1559 165.757 35.423 164.268 36.4022L162.243 34.3559C161.414 34.8403 160.512 35.2159 159.557 35.4616V38.3397C158.7 38.5117 157.815 38.603 156.91 38.603C156.004 38.603 155.119 38.5117 154.262 38.3397V35.4616C153.272 35.2053 152.338 34.8122 151.485 34.2998L149.438 36.325C147.96 35.3317 146.693 34.0506 145.713 32.5623L147.76 30.5371C147.265 29.6912 146.886 28.7716 146.64 27.7993L143.761 27.7853C143.6 26.9499 143.512 26.09 143.512 25.2055C143.512 24.2753 143.607 23.3663 143.79 22.4923L146.668 22.5063C146.925 21.5376 147.311 20.6215 147.816 19.7826L145.791 17.7363C146.784 16.2586 148.066 14.9915 149.554 14.0122L151.58 16.055C152.409 15.5707 153.311 15.1951 154.266 14.9494V12.0712C155.123 11.8992 156.007 11.808 156.913 11.808C157.819 11.808 158.704 11.8992 159.56 12.0712V14.9494L159.553 14.9529ZM156.906 18.6629C153.29 18.6629 150.358 21.5937 150.358 25.209C150.358 28.8242 153.29 31.755 156.906 31.755C160.522 31.755 163.454 28.8242 163.454 25.209C163.454 21.5937 160.522 18.6629 156.906 18.6629ZM156.906 19.4281C153.715 19.4281 151.124 22.0149 151.124 25.209C151.124 28.403 153.711 30.9899 156.906 30.9899C160.101 30.9899 162.689 28.403 162.689 25.209C162.689 22.0149 160.101 19.4281 156.906 19.4281ZM156.906 18.1996C153.034 18.1996 149.895 21.3375 149.895 25.209C149.895 29.0805 153.034 32.2184 156.906 32.2184C160.779 32.2184 163.917 29.0805 163.917 25.209C163.917 21.3375 160.779 18.1996 156.906 18.1996Z" fill="#00949C"/>
<path d="M86.7134 20.2785H98.6237V25.7022H86.7134V20.2785ZM87.2265 30.393H100.639V36H80.0437V10.3471H100.163V15.9541H87.2265V30.393ZM111.484 36.3298C109.798 36.3298 108.149 36.1344 106.537 35.7435C104.949 35.3526 103.666 34.8639 102.689 34.2776L104.777 29.5135C105.706 30.0754 106.793 30.5274 108.039 30.8694C109.285 31.187 110.507 31.3458 111.704 31.3458C112.876 31.3458 113.683 31.2237 114.122 30.9794C114.587 30.7351 114.819 30.4052 114.819 29.9899C114.819 29.599 114.599 29.318 114.159 29.147C113.744 28.9516 113.182 28.805 112.473 28.7073C111.789 28.6095 111.032 28.4996 110.201 28.3774C109.371 28.2553 108.528 28.0965 107.673 27.901C106.842 27.6811 106.072 27.3635 105.364 26.9482C104.68 26.5084 104.13 25.9221 103.715 25.1892C103.299 24.4562 103.092 23.5278 103.092 22.404C103.092 21.1336 103.458 20.0097 104.191 19.0325C104.949 18.0308 106.048 17.249 107.489 16.6871C108.931 16.1007 110.69 15.8075 112.767 15.8075C114.159 15.8075 115.564 15.9541 116.981 16.2473C118.422 16.516 119.632 16.9314 120.609 17.4933L118.52 22.2208C117.543 21.6588 116.566 21.2801 115.588 21.0847C114.611 20.8648 113.683 20.7549 112.803 20.7549C111.63 20.7549 110.8 20.8892 110.311 21.158C109.847 21.4267 109.615 21.7566 109.615 22.1475C109.615 22.5384 109.823 22.8437 110.238 23.0636C110.653 23.2591 111.203 23.4179 111.887 23.54C112.596 23.6378 113.365 23.7477 114.196 23.8699C115.026 23.9676 115.857 24.1264 116.688 24.3463C117.543 24.5662 118.312 24.896 118.997 25.3357C119.705 25.7511 120.267 26.3252 120.682 27.0581C121.098 27.7667 121.305 28.6828 121.305 29.8067C121.305 31.0282 120.927 32.1276 120.169 33.1049C119.436 34.0821 118.337 34.8639 116.871 35.4503C115.43 36.0366 113.634 36.3298 111.484 36.3298ZM134.457 36.3298C132.258 36.3298 130.291 35.8901 128.557 35.0105C126.847 34.131 125.503 32.9217 124.526 31.3825C123.548 29.8189 123.06 28.0354 123.06 26.032C123.06 24.0287 123.548 22.2574 124.526 20.7182C125.503 19.1791 126.847 17.9819 128.557 17.1268C130.291 16.2473 132.258 15.8075 134.457 15.8075C136.705 15.8075 138.647 16.2839 140.284 17.2368C141.921 18.1896 143.081 19.5333 143.765 21.2679L138.378 24.0165C137.914 23.0881 137.34 22.4162 136.656 22.0009C135.972 21.5611 135.227 21.3412 134.42 21.3412C133.614 21.3412 132.881 21.5245 132.221 21.8909C131.562 22.2574 131.037 22.7949 130.646 23.5034C130.279 24.1875 130.096 25.0304 130.096 26.032C130.096 27.0581 130.279 27.9255 130.646 28.634C131.037 29.3425 131.562 29.88 132.221 30.2464C132.881 30.6129 133.614 30.7961 134.42 30.7961C135.227 30.7961 135.972 30.5885 136.656 30.1731C137.34 29.7334 137.914 29.0493 138.378 28.1209L143.765 30.8694C143.081 32.6041 141.921 33.9478 140.284 34.9006C138.647 35.8534 136.705 36.3298 134.457 36.3298Z" fill="black"/>
<path d="M172.543 36V8.80797H179.506V36H172.543ZM196.161 36V32.2987L195.684 31.3825V24.5662C195.684 23.4667 195.342 22.6239 194.658 22.0375C193.999 21.4267 192.936 21.1213 191.47 21.1213C190.517 21.1213 189.552 21.2801 188.575 21.5978C187.598 21.8909 186.767 22.3063 186.083 22.8437L183.737 18.1163C184.861 17.3834 186.205 16.8214 187.769 16.4305C189.357 16.0152 190.932 15.8075 192.496 15.8075C195.721 15.8075 198.213 16.5527 199.972 18.043C201.755 19.5089 202.647 21.8176 202.647 24.9693V36H196.161ZM190.297 36.3298C188.709 36.3298 187.365 36.0611 186.266 35.5236C185.167 34.9861 184.324 34.2532 183.737 33.3248C183.175 32.3964 182.894 31.3581 182.894 30.2098C182.894 28.9882 183.2 27.9377 183.811 27.0581C184.446 26.1542 185.411 25.4701 186.706 25.0059C188.001 24.5173 189.674 24.273 191.726 24.273H196.417V27.901H192.679C191.555 27.901 190.761 28.0843 190.297 28.4507C189.857 28.8172 189.638 29.3058 189.638 29.9166C189.638 30.5274 189.87 31.016 190.334 31.3825C190.798 31.749 191.433 31.9322 192.239 31.9322C192.997 31.9322 193.681 31.749 194.292 31.3825C194.927 30.9916 195.391 30.4052 195.684 29.6234L196.637 32.1887C196.271 33.5569 195.55 34.5952 194.475 35.3037C193.424 35.9878 192.032 36.3298 190.297 36.3298Z" fill="black"/>
<path d="M81.6837 22.6379L81.7103 22.6113L81.7479 22.6112L93.4206 22.5993L93.4205 22.4625L81.6543 22.4745L78.9201 25.2142L78.8935 25.2408L78.8559 25.2409L71.3292 25.2486L71.3294 25.3854L78.9496 25.3776L81.6837 22.6379Z" fill="#00949C" stroke="black" stroke-width="0.181661"/>
<path d="M92.9044 23.3594C93.0681 23.4686 93.2605 23.5269 93.4573 23.5268C93.7212 23.5256 93.9739 23.4201 94.1603 23.2334C94.3468 23.0466 94.4517 22.7936 94.4523 22.5298C94.452 22.3329 94.3934 22.1406 94.2839 21.9771C94.1743 21.8136 94.0187 21.6862 93.8367 21.611C93.6547 21.5359 93.4545 21.5164 93.2615 21.555C93.0685 21.5937 92.8912 21.6887 92.7521 21.828C92.6131 21.9674 92.5184 22.1448 92.4802 22.3379C92.442 22.5311 92.4619 22.7312 92.5374 22.913C92.6129 23.0948 92.7406 23.2502 92.9044 23.3594ZM92.945 21.765C93.0964 21.6635 93.2745 21.6093 93.4567 21.609C93.5779 21.6086 93.6979 21.6321 93.81 21.6782C93.922 21.7243 94.0239 21.7921 94.1096 21.8777C94.1954 21.9633 94.2634 22.065 94.3098 22.177C94.3561 22.289 94.3799 22.4089 94.3797 22.5301C94.3798 22.7123 94.3259 22.8905 94.2248 23.0421C94.1237 23.1938 93.9798 23.312 93.8115 23.3819C93.6432 23.4518 93.4579 23.4702 93.2791 23.4348C93.1003 23.3995 92.936 23.3118 92.8069 23.1831C92.6779 23.0543 92.59 22.8902 92.5542 22.7115C92.5185 22.5328 92.5365 22.3474 92.6061 22.179C92.6756 22.0105 92.7936 21.8664 92.945 21.765Z" fill="#00949C" stroke="black" stroke-width="0.181661"/>
<path d="M71.3261 26.3123C71.5118 26.3062 71.6924 26.2481 71.8472 26.1444C72.0107 26.0349 72.1381 25.8792 72.2133 25.6973C72.2884 25.5153 72.3079 25.3151 72.2692 25.1221C72.2306 24.929 72.1356 24.7518 71.9963 24.6127C71.8569 24.4736 71.6795 24.379 71.4864 24.3408C71.2932 24.3025 71.0931 24.3224 70.9113 24.3979C70.7295 24.4734 70.5741 24.6012 70.4649 24.7649C70.3556 24.9287 70.2974 25.1211 70.2975 25.3179C70.2987 25.5818 70.4041 25.8345 70.5909 26.0209C70.7713 26.201 71.0135 26.305 71.2676 26.3125L71.2938 26.3124L71.3261 26.3123ZM71.2911 24.3951C71.4734 24.395 71.6516 24.4489 71.8033 24.55C71.9549 24.6512 72.0731 24.795 72.143 24.9634C72.2129 25.1317 72.2314 25.317 72.196 25.4958C72.1606 25.6746 72.073 25.8389 71.9442 25.9679C71.8155 26.0969 71.6513 26.1849 71.4726 26.2206C71.2939 26.2564 71.1086 26.2383 70.9401 26.1688C70.7716 26.0992 70.6275 25.9812 70.5261 25.8298C70.4247 25.6784 70.3704 25.5003 70.3701 25.3181C70.3697 25.197 70.3932 25.0769 70.4393 24.9649C70.4855 24.8528 70.5533 24.751 70.6389 24.6652C70.7245 24.5794 70.8262 24.5114 70.9381 24.4651C71.0501 24.4187 71.1701 24.395 71.2913 24.3951L71.2912 24.486L71.2911 24.3951Z" fill="#00949C" stroke="black" stroke-width="0.181661"/>
<path d="M49.554 16.0881L49.5806 16.0614L49.6182 16.0614L56.002 16.0549L56.0019 15.918L49.5219 15.9246L47.0404 18.4112L47.0138 18.4378L46.9762 18.4379L41.6286 18.4433L41.6293 18.5815L47.0712 18.576L49.554 16.0881Z" fill="#00949C" stroke="black" stroke-width="0.181661"/>
<path d="M55.4857 16.8149C55.6495 16.9242 55.8419 16.9824 56.0388 16.9823C56.3028 16.9816 56.5558 16.8763 56.7423 16.6894C56.9288 16.5025 57.0336 16.2493 57.0337 15.9853L57.1245 15.9853L57.0337 15.9854C57.0334 15.7886 56.9748 15.5962 56.8652 15.4326C56.7556 15.2691 56.6 15.1417 56.418 15.0665C56.2361 14.9914 56.0359 14.9719 55.8429 15.0105C55.6498 15.0492 55.4725 15.1442 55.3335 15.2835C55.1944 15.4229 55.0998 15.6003 55.0616 15.7934C55.0233 15.9866 55.0432 16.1867 55.1187 16.3685C55.1942 16.5503 55.3219 16.7057 55.4857 16.8149ZM55.5264 15.2205C55.6778 15.119 55.8559 15.0647 56.0382 15.0645C56.1593 15.0644 56.2792 15.0881 56.3911 15.1343C56.503 15.1805 56.6047 15.2483 56.6904 15.3338C56.7761 15.4193 56.8442 15.5209 56.8906 15.6327C56.937 15.7445 56.961 15.8644 56.9611 15.9855C56.9612 16.1678 56.9073 16.346 56.8062 16.4976C56.705 16.6493 56.5612 16.7675 56.3929 16.8374C56.2245 16.9073 56.0392 16.9257 55.8604 16.8904C55.6816 16.855 55.5173 16.7674 55.3883 16.6386C55.2593 16.5098 55.1713 16.3457 55.1356 16.167C55.0998 15.9883 55.1179 15.8029 55.1874 15.6345C55.257 15.466 55.375 15.3219 55.5264 15.2205Z" fill="#00949C" stroke="black" stroke-width="0.181661"/>
<path d="M41.5933 19.5087C41.5932 19.5087 41.5931 19.5087 41.5931 19.5087C41.593 19.5087 41.5929 19.5087 41.5929 19.5087L41.5929 19.5077L41.4451 19.5086L41.4203 19.5089L41.416 19.509L41.4122 19.5093L41.4057 19.5101C41.4009 19.5111 41.3752 19.5209 41.3572 19.5344C41.3528 19.5467 41.3505 19.5589 41.3499 19.5709L41.5933 19.5087ZM41.5933 19.5087L41.5933 19.5077C41.5933 19.5077 41.5933 19.5077 41.5933 19.5077M41.5933 19.5087L41.5933 19.5077M41.5933 19.5077C41.7901 19.5075 41.9825 19.4488 42.1461 19.3393C42.3096 19.2297 42.437 19.0741 42.5121 18.8921C42.5873 18.7101 42.6068 18.5099 42.5681 18.3169C42.5295 18.1239 42.4345 17.9466 42.2952 17.8075C42.1558 17.6685 41.9784 17.5738 41.7852 17.5356C41.5921 17.4974 41.392 17.5173 41.2102 17.5928C41.0283 17.6683 40.873 17.796 40.7637 17.9598C40.6545 18.1235 40.5963 18.316 40.5964 18.5128C40.5971 18.7768 40.7024 19.0298 40.8893 19.2163C41.0762 19.4028 41.3294 19.5076 41.5934 19.5077L41.7411 19.5077L41.7658 19.5078L41.7701 19.5079L41.774 19.5081L41.7805 19.5089C41.7853 19.5098 41.8111 19.5195 41.8292 19.533C41.8339 19.5457 41.8362 19.5583 41.8368 19.5706C41.9645 19.5411 42.0866 19.4885 42.1966 19.4147C42.3751 19.2951 42.5141 19.1253 42.5961 18.9267C42.6781 18.7282 42.6993 18.5097 42.6572 18.2991C42.6151 18.0884 42.5114 17.895 42.3593 17.7432C42.2073 17.5915 42.0136 17.4882 41.8029 17.4465C41.5921 17.4048 41.3737 17.4265 41.1753 17.5089C40.9769 17.5913 40.8074 17.7306 40.6882 17.9094C40.569 18.0881 40.5054 18.2981 40.5056 18.513L41.5933 19.5077ZM41.5926 17.59L41.5928 17.59C41.775 17.5901 41.953 17.6442 42.1044 17.7455C42.2558 17.8467 42.3738 17.9906 42.4436 18.1589C42.5133 18.3271 42.5316 18.5123 42.4961 18.691C42.4607 18.8696 42.3731 19.0338 42.2444 19.1627C42.1158 19.2916 41.9518 19.3796 41.7732 19.4154C41.5946 19.4512 41.4094 19.4332 41.241 19.3639C41.0726 19.2945 40.9285 19.1768 40.8269 19.0256C40.7254 18.8744 40.6709 18.6965 40.6704 18.5143L40.6704 18.5141C40.6702 18.2693 40.7673 18.0344 40.9402 17.8611C41.1131 17.6878 41.3478 17.5903 41.5926 17.59Z" fill="#00949C" stroke="black" stroke-width="0.181661"/>
<path d="M58.5679 31.8056L61.2613 31.8028L61.2611 31.6646L58.6626 31.6673L58.6249 31.6673L58.5983 31.6407L56.463 29.5098L56.3663 29.6067L58.5679 31.8056Z" fill="#00949C" stroke="black" stroke-width="0.181661"/>
<path d="M60.7433 32.5635C60.9076 32.6728 61.1007 32.7308 61.2981 32.7302C61.5623 32.7295 61.8154 32.6239 62.0019 32.4368C62.1884 32.2496 62.293 31.996 62.2927 31.7318C62.2925 31.5344 62.2338 31.3416 62.124 31.1776C62.0141 31.0137 61.8581 30.886 61.6757 30.8107C61.4932 30.7355 61.2926 30.716 61.0991 30.7549C60.9056 30.7937 60.728 30.889 60.5887 31.0288C60.4494 31.1687 60.3547 31.3466 60.3166 31.5403C60.2785 31.7339 60.2987 31.9345 60.3747 32.1166C60.4506 32.2988 60.5789 32.4543 60.7433 32.5635ZM60.7827 30.9664C60.9348 30.8649 61.1136 30.8109 61.2965 30.8111C61.5407 30.8114 61.7748 30.9084 61.9477 31.0809C62.1206 31.2535 62.2181 31.4874 62.2189 31.7316C62.2195 31.9145 62.1658 32.0934 62.0646 32.2457C61.9635 32.398 61.8194 32.5169 61.6506 32.5872C61.4818 32.6575 61.296 32.6762 61.1166 32.6408C60.9372 32.6054 60.7723 32.5176 60.6429 32.3884C60.5135 32.2593 60.4253 32.0946 60.3896 31.9153C60.3538 31.736 60.3721 31.5501 60.4421 31.3811C60.5121 31.2122 60.6306 31.0679 60.7827 30.9664Z" fill="#00949C" stroke="black" stroke-width="0.181661"/>
<path d="M55.3919 29.5329C55.3922 29.7879 55.4899 30.0328 55.6644 30.2177L55.6845 30.2377L55.7057 30.2588C55.8416 30.3861 56.0107 30.4727 56.1938 30.5088C56.3869 30.5467 56.5869 30.5266 56.7685 30.451C56.9502 30.3754 57.1054 30.2476 57.2144 30.0839C57.3235 29.9201 57.3817 29.7277 57.3815 29.5309C57.3812 29.3341 57.3227 29.1419 57.2133 28.9783C57.1039 28.8148 56.9485 28.6873 56.7667 28.6121C56.5848 28.5368 56.3848 28.5171 56.1918 28.5555C55.9989 28.5939 55.8216 28.6885 55.6824 28.8275C55.4961 29.015 55.3917 29.2686 55.3919 29.5329ZM57.0394 28.8792L57.0395 28.8794C57.1685 29.0082 57.2564 29.1723 57.2921 29.3511C57.3278 29.5298 57.3097 29.7151 57.2401 29.8836C57.1705 30.052 57.0525 30.1961 56.9011 30.2975C56.7496 30.3989 56.5715 30.4531 56.3892 30.4533C56.2069 30.4535 56.0287 30.3996 55.877 30.2985C55.7254 30.1974 55.6071 30.0536 55.5371 29.8853C55.4672 29.717 55.4487 29.5317 55.4841 29.3529C55.5194 29.1741 55.607 29.0098 55.7357 28.8807L55.7358 28.8806C55.9088 28.708 56.143 28.611 56.3873 28.6107C56.6316 28.6105 56.8661 28.707 57.0394 28.8792Z" fill="#00949C" stroke="black" stroke-width="0.181661"/>
<path d="M59.4565 20.9425L61.3591 19.036L61.2613 18.9384L59.4257 20.7778L59.3991 20.8044L59.3615 20.8044L56.3448 20.8075L56.3449 20.9444L59.4565 20.9425Z" fill="#00949C" stroke="black" stroke-width="0.181661"/>
<path d="M61.5307 19.9403C61.7241 19.9013 61.9017 19.8058 62.0408 19.6658C62.2271 19.4785 62.3315 19.2249 62.331 18.9606C62.3305 18.6964 62.2252 18.4432 62.0382 18.2565C61.8985 18.1171 61.7206 18.0223 61.527 17.984C61.3334 17.9457 61.1328 17.9658 60.9506 18.0416C60.7683 18.1173 60.6127 18.2455 60.5033 18.4098C60.394 18.574 60.3358 18.767 60.3362 18.9644C60.3365 19.1617 60.3954 19.3545 60.5054 19.5184C60.6154 19.6823 60.7715 19.8098 60.954 19.8849C61.1365 19.96 61.3372 19.9793 61.5307 19.9403ZM60.4292 18.783C60.465 18.6037 60.5532 18.4391 60.6827 18.31C60.8556 18.1375 61.0898 18.0405 61.334 18.0403C61.5782 18.04 61.8126 18.1365 61.9859 18.3086C62.1156 18.4375 62.2041 18.602 62.2403 18.7812C62.2764 18.9604 62.2586 19.1464 62.189 19.3154C62.1194 19.4845 62.0011 19.6291 61.8493 19.731C61.6974 19.8328 61.5187 19.8872 61.3359 19.8874C61.153 19.8876 60.9742 19.8335 60.8222 19.732C60.6701 19.6305 60.5516 19.4861 60.4816 19.3172C60.4117 19.1482 60.3934 18.9623 60.4292 18.783Z" fill="#00949C" stroke="black" stroke-width="0.181661"/>
<path d="M55.6038 21.5811C55.7843 21.7612 56.0265 21.8653 56.2807 21.8727L56.309 21.8726L56.3389 21.8725C56.525 21.8664 56.7059 21.8081 56.8608 21.7041C57.0242 21.5944 57.1514 21.4388 57.2264 21.2569C57.3013 21.075 57.3207 20.8749 57.2821 20.682C57.2434 20.489 57.1484 20.3119 57.0092 20.1729C56.8699 20.0339 56.6925 19.9393 56.4995 19.901C56.3065 19.8627 56.1065 19.8825 55.9247 19.9579C55.743 20.0332 55.5876 20.1608 55.4782 20.3243C55.3689 20.4879 55.3105 20.6802 55.3104 20.8769C55.3112 21.1412 55.4167 21.3944 55.6038 21.5811ZM56.3065 19.954L56.3067 19.954C56.489 19.9538 56.6672 20.0077 56.8188 20.1089C56.9704 20.21 57.0887 20.3539 57.1586 20.5222C57.2285 20.6905 57.2469 20.8758 57.2115 21.0546C57.1761 21.2334 57.0885 21.3977 56.9598 21.5267C56.831 21.6557 56.6669 21.7437 56.4882 21.7794C56.3094 21.8152 56.1241 21.7972 55.9556 21.7276C55.7872 21.658 55.6431 21.5401 55.5416 21.3887C55.4402 21.2372 55.3859 21.0591 55.3857 20.8768L55.3857 20.8766C55.3859 20.6323 55.483 20.3981 55.6555 20.2251C55.8281 20.0522 56.0622 19.9547 56.3065 19.954Z" fill="#00949C" stroke="black" stroke-width="0.181661"/>
<path d="M9.46761 16.8146L11.3433 20.8477L11.4686 20.7894L9.63213 16.8407L9.61626 16.8065L9.62917 16.7712L10.921 13.2332L10.7914 13.1852L9.46761 16.8146Z" fill="#00949C" stroke="black" stroke-width="0.181661"/>
<path d="M10.4362 20.6993C10.4062 20.8944 10.4348 21.094 10.5184 21.2729L10.4361 21.3113L10.5183 21.2727C10.6304 21.5116 10.8324 21.6964 11.0802 21.7869C11.328 21.8774 11.6016 21.8662 11.8412 21.7558L11.8792 21.8383L11.8411 21.7559C12.0202 21.6729 12.1707 21.5387 12.2735 21.3701C12.3763 21.2016 12.4268 21.0063 12.4186 20.8091C12.4103 20.6118 12.3438 20.4215 12.2273 20.2621C12.1107 20.1027 11.9496 19.9815 11.7641 19.9138C11.5787 19.8461 11.3773 19.8349 11.1855 19.8817C10.9937 19.9285 10.8201 20.0312 10.6867 20.1767C10.5534 20.3223 10.4661 20.5041 10.4362 20.6993ZM11.9018 20.0634C12.0578 20.1587 12.182 20.2981 12.2586 20.4639C12.3613 20.686 12.3717 20.9396 12.2875 21.1693C12.2034 21.3989 12.0315 21.5858 11.8098 21.689C11.6441 21.766 11.4592 21.7922 11.2786 21.7642C11.098 21.7361 10.9298 21.6551 10.7953 21.5314C10.6607 21.4078 10.5659 21.2469 10.5228 21.0693C10.4797 20.8917 10.4902 20.7053 10.5531 20.5337C10.616 20.3621 10.7284 20.2131 10.876 20.1054C11.0237 19.9977 11.1999 19.9362 11.3825 19.9287C11.5651 19.9212 11.7459 19.9681 11.9018 20.0634Z" fill="#00949C" stroke="black" stroke-width="0.181661"/>
<path d="M9.93403 12.832L9.93409 12.8318L9.93456 12.832L9.98471 12.6935L9.99288 12.6708L9.99386 12.668L9.99453 12.6659L9.99558 12.6623C9.99636 12.6592 9.9982 12.6293 9.99157 12.6035C9.9802 12.5951 9.96856 12.5891 9.95698 12.5849L9.93403 12.832ZM9.93403 12.832L9.9345 12.8321C9.86703 13.0171 9.85591 13.2179 9.90255 13.4091C9.94919 13.6004 10.0515 13.7736 10.1965 13.9067C10.3416 14.0398 10.5228 14.127 10.7174 14.1571C10.9119 14.1872 11.111 14.159 11.2896 14.076C11.4681 13.993 11.618 13.8589 11.7203 13.6907C11.8226 13.5225 11.8727 13.3277 11.8644 13.131C11.856 12.9343 11.7895 12.7445 11.6733 12.5856C11.5571 12.4267 11.3964 12.3059 11.2116 12.2383M9.93403 12.832L9.93445 12.8323M9.93445 12.8323L9.88377 12.9709L9.87539 12.9937L9.87435 12.9964L9.87363 12.9982L9.87246 13.0009C9.87158 13.0028 9.86628 13.0124 9.86119 13.0196C9.83645 13.0275 9.81384 13.0274 9.79388 13.0226C9.77492 13.158 9.78159 13.2965 9.81431 13.4307C9.8652 13.6394 9.97684 13.8283 10.1351 13.9736C10.2934 14.1189 10.4912 14.214 10.7035 14.2469C10.9158 14.2797 11.1331 14.2489 11.3279 14.1583C11.5227 14.0678 11.6862 13.9214 11.7979 13.7379C11.9095 13.5543 11.9643 13.3418 11.9551 13.1272C11.946 12.9125 11.8735 12.7054 11.7466 12.532C11.6198 12.3586 11.4444 12.2267 11.2427 12.1529M9.93445 12.8323C10.0254 12.5844 10.2109 12.3827 10.4503 12.2713C10.6897 12.16 10.9634 12.1481 11.2116 12.2383M9.93445 12.8323L11.2116 12.2383M11.2427 12.1529L11.2116 12.2383C11.2116 12.2383 11.2116 12.2383 11.2116 12.2383M11.2427 12.1529L11.2115 12.2383C11.2115 12.2383 11.2115 12.2383 11.2116 12.2383M11.2427 12.1529L11.2116 12.2383M11.7355 13.491L11.7355 13.4912C11.6729 13.6624 11.561 13.8112 11.4139 13.9188C11.2667 14.0264 11.091 14.088 10.9089 14.0957C10.7268 14.1034 10.5465 14.057 10.3908 13.9623C10.235 13.8676 10.1109 13.7288 10.034 13.5635C9.95716 13.3982 9.93103 13.2139 9.95893 13.0338C9.98683 12.8536 10.0675 12.6858 10.1908 12.5515C10.314 12.4173 10.4743 12.3226 10.6514 12.2794C10.8285 12.2362 11.0144 12.2465 11.1857 12.309L11.1859 12.309C11.4152 12.3933 11.6018 12.565 11.7048 12.7865C11.8078 13.008 11.8189 13.2613 11.7355 13.491Z" fill="#00949C" stroke="black" stroke-width="0.181661"/>
</g>
<defs>
<clipPath id="clip0_1_96">
<rect width="210" height="45.2336" fill="white"/>
</clipPath>
</defs>
</svg>
