<svg width="31" height="29" viewBox="0 0 31 29" fill="none" xmlns="http://www.w3.org/2000/svg">
<g clip-path="url(#clip0_220_34)">
<path fill-rule="evenodd" clip-rule="evenodd" d="M26.6691 0C28.7178 0 30.381 1.58764 30.381 3.5431V25.4569C30.381 27.4124 28.7177 29 26.6691 29H3.71182C1.66324 29 0 27.4124 0 25.4569V3.5431C0 1.58764 1.66318 0 3.71182 0H26.6691ZM11.6017 24.0464C19.668 24.0464 24.0785 17.6663 24.0785 12.1367C24.0785 11.9545 24.0785 11.7721 24.0694 11.5985C24.9242 11.0083 25.6699 10.2704 26.2611 9.4284C25.479 9.75827 24.6333 9.98399 23.7421 10.0881C24.6515 9.56728 25.3426 8.75132 25.6699 7.77041C24.8243 8.24784 23.8876 8.5951 22.8872 8.78604C22.087 7.97007 20.9502 7.46659 19.6862 7.46659C17.2672 7.46659 15.3029 9.34163 15.3029 11.6506C15.3029 11.9805 15.3393 12.3017 15.4211 12.6055C11.7745 12.4319 8.54613 10.7652 6.38178 8.23051C6.0089 8.84681 5.79066 9.56728 5.79066 10.3312C5.79066 11.7809 6.56365 13.0656 7.74584 13.8121C7.02743 13.7947 6.35448 13.6038 5.76336 13.2912V13.3433C5.76336 15.3746 7.27297 17.0586 9.28275 17.4492C8.919 17.5447 8.52797 17.5968 8.1278 17.5968C7.84588 17.5968 7.57311 17.5708 7.30027 17.5187C7.85502 19.1854 9.47369 20.3919 11.3925 20.4266C9.89203 21.5465 8.00052 22.2148 5.94529 22.2148C5.59063 22.2148 5.24505 22.1975 4.89946 22.1541C6.81827 23.352 9.12811 24.0464 11.6017 24.0464Z" fill="#0E0E0E"/>
</g>
<defs>
<clipPath id="clip0_220_34">
<rect width="31" height="29" fill="white"/>
</clipPath>
</defs>
</svg>
