<svg width="31" height="29" viewBox="0 0 31 29" fill="none" xmlns="http://www.w3.org/2000/svg">
<g clip-path="url(#clip0_220_40)">
<path fill-rule="evenodd" clip-rule="evenodd" d="M26.6691 0C28.7178 0 30.381 1.58764 30.381 3.5431V25.4569C30.381 27.4124 28.7177 29 26.6691 29H20.3516V18.0732H24.3035L25.0554 13.3935H20.3516V10.3566C20.3516 9.07632 21.0086 7.82836 23.1155 7.82836H25.2542V3.84426C25.2542 3.84426 23.3132 3.52809 21.4576 3.52809C17.5836 3.52809 15.0515 5.7693 15.0515 9.82675V13.3935H10.7452V18.0732H15.0515V29H3.71182C1.66324 29 0 27.4124 0 25.4569V3.5431C0 1.58764 1.66318 0 3.71182 0H26.6691Z" fill="#0E0E0E"/>
</g>
<defs>
<clipPath id="clip0_220_40">
<rect width="31" height="29" fill="white"/>
</clipPath>
</defs>
</svg>
