<svg width="82" height="83" viewBox="0 0 82 83" fill="none" xmlns="http://www.w3.org/2000/svg">
<g clip-path="url(#clip0_6_140)">
<path d="M1.74984 41.0033C1.74792 47.9769 3.56217 54.7861 7.01194 60.7879L1.41992 81.294L22.3145 75.7916C28.0937 78.9514 34.5689 80.6071 41.1489 80.6075H41.1662C62.8882 80.6075 80.5704 62.8548 80.5797 41.0345C80.5839 30.461 76.4877 20.5184 69.0456 13.0381C61.6047 5.55844 51.7087 1.43708 41.1646 1.43225C19.4401 1.43225 1.75913 19.184 1.75016 41.0033" fill="url(#paint0_linear_6_140)"/>
<path d="M0.342734 40.9904C0.340492 48.215 2.21977 55.2677 5.79253 61.4843L0 82.7256L21.6438 77.0259C27.6074 80.2916 34.3218 82.0133 41.1541 82.0159H41.1717C63.673 82.0159 81.9904 63.6246 82 41.0232C82.0038 30.0698 77.7603 19.7698 70.0523 12.0215C62.3434 4.27418 52.0934 0.00450388 41.1717 0C18.6665 0 0.352023 18.3887 0.343055 40.9904H0.342734ZM13.2321 60.4137L12.424 59.1253C9.02673 53.7 7.23362 47.4306 7.23618 40.993C7.24355 22.207 22.4661 6.9231 41.1845 6.9231C50.2493 6.92696 58.7684 10.476 65.1759 16.9153C71.5831 23.3552 75.1088 31.9158 75.1066 41.0207C75.0982 59.8066 59.8754 75.0925 41.1717 75.0925H41.1582C35.0681 75.0893 29.0953 73.4466 23.8863 70.3425L22.6467 69.6042L9.80284 72.9863L13.2321 60.4134V60.4137Z" fill="url(#paint1_linear_6_140)"/>
<path d="M30.9671 23.8538C30.2029 22.1478 29.3986 22.1134 28.6718 22.0835C28.0766 22.0577 27.3963 22.0597 26.7166 22.0597C26.0363 22.0597 24.9309 22.3167 23.9965 23.3413C23.0612 24.3669 20.4257 26.8454 20.4257 31.8862C20.4257 36.9273 24.0814 41.7989 24.591 42.4831C25.1013 43.1661 31.6484 53.8416 42.0176 57.9485C50.6353 61.3614 52.389 60.6826 54.2593 60.5115C56.1299 60.341 60.2953 58.0337 61.1451 55.6412C61.9955 53.249 61.9955 51.1985 61.7405 50.7699C61.4856 50.343 60.8052 50.0866 59.785 49.5745C58.7645 49.062 53.749 46.5833 52.8141 46.2413C51.8787 45.8996 51.1987 45.7291 50.5184 46.7551C49.838 47.7794 47.8844 50.0866 47.289 50.7699C46.6942 51.4549 46.0987 51.5401 45.0788 51.0276C44.058 50.5135 40.7726 49.4329 36.8747 45.9428C33.8419 43.2269 31.7945 39.8731 31.1994 38.8472C30.6042 37.8229 31.1356 37.2676 31.6472 36.7571C32.1055 36.298 32.6677 35.5607 33.1783 34.9626C33.6869 34.3643 33.8567 33.9373 34.1969 33.254C34.5373 32.5701 34.3669 31.9717 34.1123 31.4593C33.8567 30.9468 31.8743 25.8799 30.9671 23.8541" fill="white"/>
</g>
<defs>
<linearGradient id="paint0_linear_6_140" x1="40.9998" y1="81.294" x2="40.9998" y2="1.43225" gradientUnits="userSpaceOnUse">
<stop stop-color="#1FAF38"/>
<stop offset="1" stop-color="#60D669"/>
</linearGradient>
<linearGradient id="paint1_linear_6_140" x1="41" y1="82.7256" x2="41" y2="0" gradientUnits="userSpaceOnUse">
<stop stop-color="#F9F9F9"/>
<stop offset="1" stop-color="white"/>
</linearGradient>
<clipPath id="clip0_6_140">
<rect width="82" height="83" fill="white"/>
</clipPath>
</defs>
</svg>
